<svg xmlns="http://www.w3.org/2000/svg" width="800" height="800"><path stroke="#000" d="m386.5 96 31.5.5-31.5.5zM372.5 97l5.5.5-5.5.5zM426.5 97l4.5.5-4.5.5zM363.5 98l3.5.5-3.5.5zM436.5 98l3.5.5-3.5.5zM356.5 99l2.5.5-2.5.5zM443.5 99l3.5.5-3.5.5zM350.5 100l2.5.5-2.5.5zM450.5 100l2.5.5-2.5.5zM344.5 101l2.5.5-2.5.5zM339.5 102l2.5.5-2.5.5zM334.5 103l2.5.5-2.5.5zM552.5 137l1 2zM243.5 139l-1 2zM238.5 142l-1 2zM560.5 142l1 2zM568.5 147l1 2zM572.5 150l1 2zM384.5 151l12.5.5-12.5.5zM409.5 151l6.5.5-6.5.5zM223.5 152l-1 2zM373.5 152l4.5.5-4.5.5zM423.5 152l5.5.5-5.5.5zM365.5 153l2.5.5-2.5.5zM432.5 153l2.5.5-2.5.5zM359.5 154l2.5.5-2.5.5zM438.5 154l3.5.5-3.5.5zM353.5 155l2.5.5-2.5.5zM445.5 155l2.5.5-2.5.5zM579.5 155l1 2zM449.5 156l2.5.5-2.5.5zM216.5 157l-2 3zM583.5 158l1 2zM462.5 159l2.5.5-2.5.5zM211.5 161l-1 2zM587.5 161l2 3zM207.5 164l-3 4zM593.5 166l3 4zM201.5 169l-4 5zM600.5 172l3 4zM510.5 177l5.5 3.5-1.5-.5q-4-.5-4-3ZM191.5 178l-13 14zM523.5 184l1 2zM531.5 189l1 2zM536.5 192l1 2zM261.5 193l-1 2zM621.5 193l3 4zM540.5 195l1 2zM172.5 198l-3 4zM251.5 200l-1 2zM547.5 200l1 2zM628.5 201l2 3zM247.5 203l-1 2zM551.5 203l1 2zM166.5 205l-2 3zM242.5 207l-2 3zM557.5 208l2 3zM634.5 208l2 3zM162.5 210l-1 2zM236.5 212l-1 2zM159.5 214l-1 2zM564.5 214l20 21zM156.5 218l-1 2zM153.5 222l-1 2zM225.5 222l-7 8zM646.5 224l1 2zM147.5 231l-1 2zM145.5 234l-1 2zM213.5 235l-4 5zM654.5 236l1 2zM586.5 237l3 4zM140.5 242l-1 2zM206.5 243l-1 2zM592.5 244l2 3zM137.5 247l-1 2zM202.5 248l-1 2zM596.5 249l1 2zM199.5 252l-1 2zM598.5 252l2 3zM196.5 256l-1 2zM601.5 256l1 2zM194.5 259l-1 2zM130.5 260l-.5 1.5-1.5 2.5.5-1.5zM604.5 260l1 2zM606.5 263l1 2zM609.5 268l1 2zM612.5 273l1 2zM396.5 297l6.5.5-6.5.5zM385.5 298l3.5.5-3.5.5zM411.5 298l3.5.5-3.5.5zM345.5 313l-1 2zM342.5 315l-1 2zM458.5 316l1 2zM338.5 318l-1 2zM462.5 319l3 4zM333.5 322l-11 12zM105.5 325l.5 2.5h-1zM474.5 331l3 4zM319.5 337l-1 2zM479.5 337l1 2zM316.5 341l-1 2zM101.5 344l.5 2.5h-1zM314.5 344l-1 2zM156.5 347l.5 2.5h-1zM312.5 347l-1 2zM100.5 349l.5 2.5h-1zM155.5 352l.5 2.5h-1zM392.5 354l12.5.5-12.5.5zM99.5 355l.5 3.5h-1zM408.5 355l2.5.5-2.5.5zM644.5 357l.5 2.5h-1zM154.5 358l.5 2.5h-1zM700.5 358l.5 3.5h-1zM421.5 359l3.5 2.5-1.5-.5zM370.5 362l-1 2zM98.5 363l.5 4.5h-1zM645.5 363l.5 2.5h-1zM153.5 364l.5 3.5h-1zM366.5 365l-3 4zM430.5 365l7 8zM701.5 366l.5 3.5h-1zM301.5 370l.5 1.5-1.5 1.5h-147v-1h147zM646.5 370l.5 3-150-.5 149-.5zM97.5 372l.5 3.5h-1zM438.5 374l1 2zM702.5 374l.5 5.5h-1zM440.5 377l1 2zM96.5 387l.5 11.5h-1zM353.5 387l.5 2.5h-1zM703.5 390l.5 8.5h-1zM352.5 393l.5 6.5h-1zM446.5 393l.5 2.5h-1zM96.5 401l.5 14.5h-1zM352.5 401l.5 6.5h-1zM703.5 401l.5 11.5h-1zM446.5 404l.5 2.5h-1zM445.5 409l.5 2.5h-1zM702.5 420l.5 5.5h-1zM440.5 423l-1 2zM97.5 425l.5 4.5h-1zM438.5 426l-1 2zM646.5 428l.5 2.5h-1zM362.5 430l5 6zM701.5 431l.5 3.5h-1zM153.5 432l.5 3.5h-1zM645.5 434l.5 2.5h-1zM98.5 435l.5 3.5h-1zM429.5 435l-1 2zM426.5 437l-1 2zM700.5 438l.5 4.5h-1zM154.5 439l.5 3.5h-1zM644.5 440l.5 2.5h-1zM99.5 444l.5 2.5h-1zM390.5 445l2.5.5-2.5.5zM403.5 445l3.5.5-3.5.5zM699.5 445l.5 2.5h-1zM100.5 450l.5 2.5h-1zM310.5 450l1 2zM642.5 450l.5 2.5h-1zM698.5 451l.5 2.5h-1zM312.5 453l1 2zM485.5 454l-1 2zM101.5 455l.5 2.5h-1zM697.5 456l.5 2.5h-1zM483.5 457l-1 2zM316.5 459l1 2zM696.5 461l.5 2.5h-1zM319.5 463l2 3zM478.5 464l-2 3zM103.5 466l.5 2.5h-1zM324.5 469l6 7zM470.5 473l-3 4zM692.5 477l.5 2.5h-1zM334.5 478l2 3zM463.5 479l-2 3zM339.5 482l1 2zM458.5 483l-1 2zM382.5 501l3.5.5-3.5.5zM414.5 501l2.5.5-2.5.5zM390.5 502l8.5.5-8.5.5zM401.5 502l8.5.5-8.5.5zM618.5 517l-.5 1.5-1.5 2.5.5-1.5zM610.5 531l-1 2zM605.5 539l-1 2zM131.5 543l1 2zM602.5 543l-1 2zM197.5 545l1 2zM665.5 545l-1 2zM600.5 546l-1 2zM200.5 549l1 2zM597.5 550l-1 2zM203.5 553l1 2zM595.5 553l-2 3zM137.5 554l1 2zM206.5 557l3 4zM590.5 559l-2 3zM142.5 562l1 2zM655.5 562l-1 2zM144.5 565l1 2zM585.5 565l-6 7zM653.5 565l-1 2zM214.5 566l4 5zM146.5 568l1 2zM651.5 568l-1 2zM148.5 571l1 2zM649.5 571l-1 2zM150.5 574l1 2zM647.5 574l-1 2zM223.5 575l10 11zM152.5 577l2 3zM642.5 581l-1 2zM156.5 582l1 2zM567.5 583l-5 6zM639.5 585l-1 2zM159.5 586l2 3zM237.5 588l2 3zM635.5 590l-1 2zM163.5 591l1 2zM558.5 591l-2 3zM242.5 592l2 3zM553.5 595l-2 3zM631.5 595l-2 3zM167.5 596l5 6zM248.5 597l1 2zM548.5 599l-2 3zM544.5 602l-1 2zM625.5 602l-3 4zM258.5 604l1 2zM541.5 604l-1 2zM176.5 606l14 15zM261.5 606l1 2zM538.5 606l-1 2zM614.5 614l-2 3zM522.5 616l-1 2zM600.5 627l-4 5zM199.5 628l1 2zM204.5 632l2 3zM592.5 634l-2 3zM209.5 636l2 3zM586.5 639l-1 2zM215.5 641l1 2zM582.5 642l-1 2zM218.5 643l1 2zM354.5 644l2.5.5-2.5.5zM445.5 644l2.5.5-2.5.5zM360.5 645l2.5.5-2.5.5zM438.5 645l3.5.5-3.5.5zM578.5 645l-1 2zM366.5 646l2.5.5-2.5.5zM432.5 646l2.5.5-2.5.5zM374.5 647l5.5.5-5.5.5zM422.5 647l6.5.5-6.5.5zM387.5 648l27.5.5-27.5.5zM574.5 648l-1 2zM228.5 650l1 2zM231.5 652l1 2zM239.5 657l1 2zM244.5 660l1 2zM318.5 692l2.5.5-2.5.5zM322.5 693l2.5.5-2.5.5zM326.5 694l2.5.5-2.5.5zM339.5 697l2.5.5-2.5.5zM344.5 698l3.5.5-3.5.5zM350.5 699l3.5.5-3.5.5zM450.5 699l2.5.5-2.5.5zM357.5 700l2.5.5-2.5.5zM443.5 700l2.5.5-2.5.5zM363.5 701l4.5.5-4.5.5zM436.5 701l2.5.5-2.5.5zM374.5 702l5.5.5-5.5.5zM424.5 702l6.5.5-6.5.5zM385.5 703l30.5.5-30.5.5z" opacity=".69"/><path stroke="#000" d="M378.5 97h47l1 1h9l1 1 13 1 32 7 27 9q67.2 27.3 112.5 76.5 17.6 18.9 32 41l18 31 10 22 8 22 7 26 4 20 1 15 1 1 1 28 1 2-1 1-1 29-1 1-1 13-4 21-11 37-9 22Q648 585 601.5 627q-39.5 36.5-94 58l-41 12-30 4-1 1h-11l-1 1h-43l-1-1h-11l-1-1h-7l-23-4-30-8-32-12q-61-27.5-102.5-74.5-35-38-56-90l-7-20-8-32v-5l-3-12-1-18-1-1v-23l-1-2 1-1v-22l1-1 1-16 5-28 13-42 10-23q26.8-54.2 69.5-92.5 37.5-34 88-55 22.5-9 48-15l27-5 18-1zm6.5 54-1 1h-10l-1 1-19 2q-8 3-17 4l-39 14q-42 19-72 49-29 27-48 64l-16 39-9 40v8h148l10-23 9-13q12-16 30-26l24-10 16-3h21l16 3q24 7 40 22 20 18 30 48l1 2h149l-7-37-13-36q-17-37-42-65-36-42-89-65l-31-11h-4l-13-4-12-1-7-2h-12l-1-1zm8 203-12 3-14 8q-12 10-15 29l1 19 9 18q10 11 29 15h16l5-1 17-8q14-10 18-30 2-24-9-34-7-10-18-15l-15-4zm-240 74v2l1 13 5 23 11 32q17 39 44 69 35 38 86 61l37 13 30 6 20 1 1 1 41-1 28-5 28-8 37-17q22-12 41-29 33-29 55-69l12-25 8-23 9-41v-3H497q-6 23-21 40-14 16-34 26l-17 6-11 2h-12l-1 1-2-1-18-1-17-5q-18-7-30-18-22-18-32-47v-3z"/></svg>