<svg width="600" height="600" viewBox="0 0 600 600" fill="none" xmlns="http://www.w3.org/2000/svg">
<g clip-path="url(#clip0_25_31)">
<rect width="600" height="600" fill="#00C8C8"/>
<path d="M114.367 343.475C130.019 327.389 134.515 303.466 125.323 282.93C116.052 262.238 93.6147 249.343 71.1036 251.593C48.6926 253.84 29.4019 270.076 23.8662 292.034C18.3442 313.948 27.3405 337.083 45.8068 349.913C66.8593 364.545 95.663 361.286 113.946 343.869C114.093 343.745 114.234 343.614 114.367 343.475ZM65.4121 262.472C83.0781 258.025 102.386 265.175 112.648 280.312C123.649 296.525 122.441 317.744 110.649 332.83L91.9398 314.121C95.6858 307.136 95.0787 298.434 89.0751 292.43C83.2616 286.617 74.2123 285.667 67.2881 289.469L48.6733 270.855C53.5842 266.887 59.2941 264.028 65.4121 262.472ZM82.1455 311.257C74.1543 318.464 62.5234 307.088 70.25 299.362C77.9766 291.635 89.3643 303.27 82.1455 311.257ZM57.4764 345.338C40.6195 337.38 30.4227 319.402 32.2324 300.848C33.0919 292.404 36.3926 284.392 41.7311 277.793L60.3322 296.394C56.5117 303.316 57.5266 312.414 63.3087 318.197C69.3221 324.21 78.0225 324.799 84.9996 321.061L103.714 339.776C90.6873 349.96 72.7666 352.56 57.4784 345.34L57.4764 345.338Z" fill="#008080" fill-opacity="0.5"/>
<path d="M114.367 191.007C130.019 174.921 134.515 150.997 125.323 130.462C116.052 109.77 93.6147 96.8753 71.1036 99.1246C48.6926 101.372 29.4019 117.608 23.8662 139.566C18.3442 161.48 27.3405 184.615 45.8068 197.445C66.8593 212.077 95.663 208.818 113.946 191.401C114.093 191.277 114.234 191.146 114.367 191.007ZM65.4121 110.004C83.0781 105.557 102.386 112.707 112.648 127.844C123.649 144.057 122.441 165.276 110.649 180.362L91.9398 161.653C95.6858 154.668 95.0787 145.966 89.0751 139.962C83.2616 134.149 74.2123 133.198 67.2881 137.001L48.6733 118.386C53.5842 114.419 59.2941 111.56 65.4121 110.004ZM82.1455 158.789C74.1543 165.996 62.5234 154.62 70.25 146.894C77.9766 139.167 89.3643 150.802 82.1455 158.789ZM57.4764 192.869C40.6195 184.912 30.4227 166.934 32.2324 148.38C33.0919 139.935 36.3926 131.924 41.7311 125.325L60.3322 143.926C56.5117 150.848 57.5266 159.946 63.3087 165.728C69.3221 171.742 78.0225 172.331 84.9996 168.593L103.714 187.308C90.6873 197.492 72.7666 200.092 57.4784 192.871L57.4764 192.869Z" fill="#008080" fill-opacity="0.5"/>
<path d="M114.367 495.943C130.019 479.857 134.515 455.934 125.323 435.398C116.052 414.706 93.6147 401.811 71.1036 404.061C48.6926 406.308 29.4019 422.544 23.8662 444.502C18.3442 466.416 27.3405 489.551 45.8068 502.381C66.8593 517.013 95.663 513.754 113.946 496.337C114.093 496.213 114.234 496.082 114.367 495.943ZM65.4121 414.94C83.0781 410.493 102.386 417.643 112.648 432.78C123.649 448.993 122.441 470.212 110.649 485.298L91.9398 466.589C95.6858 459.604 95.0787 450.902 89.0751 444.898C83.2616 439.085 74.2123 438.135 67.2881 441.937L48.6733 423.323C53.5842 419.355 59.2941 416.496 65.4121 414.94ZM82.1455 463.725C74.1543 470.932 62.5234 459.556 70.25 451.83C77.9766 444.103 89.3643 455.738 82.1455 463.725ZM57.4764 497.806C40.6195 489.848 30.4227 471.87 32.2324 453.316C33.0919 444.872 36.3926 436.86 41.7311 430.261L60.3322 448.862C56.5117 455.784 57.5266 464.882 63.3087 470.665C69.3221 476.678 78.0225 477.267 84.9996 473.529L103.714 492.244C90.6873 502.428 72.7666 505.028 57.4784 497.808L57.4764 497.806Z" fill="#008080" fill-opacity="0.5"/>
<path d="M419.304 344.219C434.955 328.132 439.452 304.209 430.259 283.674C420.988 262.982 398.551 250.087 376.04 252.336C353.629 254.584 334.338 270.82 328.803 292.778C323.281 314.691 332.277 337.827 350.743 350.657C371.796 365.289 400.599 362.029 418.882 344.613C419.03 344.489 419.17 344.357 419.304 344.219ZM370.349 263.216C388.015 258.769 407.323 265.918 417.584 281.055C428.585 297.269 427.377 318.487 415.585 333.574L396.876 314.865C400.622 307.88 400.015 299.177 394.012 293.174C388.198 287.36 379.149 286.41 372.225 290.213L353.61 271.598C358.521 267.631 364.231 264.772 370.349 263.216ZM387.082 312.001C379.091 319.208 367.46 307.832 375.187 300.105C382.913 292.379 394.301 304.013 387.082 312.001ZM362.413 346.081C345.556 338.124 335.359 320.145 337.169 301.591C338.028 293.147 341.329 285.136 346.668 278.536L365.269 297.137C361.448 304.06 362.463 313.158 368.245 318.94C374.259 324.954 382.959 325.543 389.936 321.805L408.651 340.52C395.624 350.704 377.703 353.304 362.415 346.083L362.413 346.081Z" fill="#008080" fill-opacity="0.5"/>
<path d="M419.304 191.751C434.955 175.664 439.452 151.741 430.259 131.206C420.988 110.514 398.551 97.619 376.04 99.8684C353.629 102.116 334.338 118.352 328.803 140.31C323.281 162.223 332.277 185.359 350.743 198.189C371.796 212.821 400.599 209.561 418.882 192.145C419.03 192.021 419.17 191.889 419.304 191.751ZM370.349 110.748C388.015 106.301 407.323 113.45 417.584 128.587C428.585 144.801 427.377 166.019 415.585 181.106L396.876 162.397C400.622 155.412 400.015 146.709 394.012 140.706C388.198 134.892 379.149 133.942 372.225 137.745L353.61 119.13C358.521 115.163 364.231 112.304 370.349 110.748ZM387.082 159.533C379.091 166.74 367.46 155.364 375.187 147.637C382.913 139.911 394.301 151.546 387.082 159.533ZM362.413 193.613C345.556 185.656 335.359 167.677 337.169 149.123C338.028 140.679 341.329 132.668 346.668 126.068L365.269 144.67C361.448 151.592 362.463 160.69 368.245 166.472C374.259 172.486 382.959 173.075 389.936 169.337L408.651 188.052C395.624 198.236 377.703 200.836 362.415 193.615L362.413 193.613Z" fill="#008080" fill-opacity="0.5"/>
<path d="M261.367 114.401C277.019 98.3147 281.515 74.3915 272.323 53.8562C263.052 33.1639 240.615 20.2694 218.104 22.5187C195.693 24.766 176.402 41.0019 170.866 62.9604C165.344 84.8737 174.34 108.009 192.807 120.839C213.859 135.471 242.663 132.212 260.946 114.795C261.093 114.671 261.234 114.54 261.367 114.401ZM212.412 33.3982C230.078 28.9512 249.386 36.1007 259.648 51.2376C270.649 67.4511 269.441 88.6698 257.649 103.756L238.94 85.0471C242.686 78.0621 242.079 69.3598 236.075 63.3561C230.262 57.5427 221.212 56.5925 214.288 60.3953L195.673 41.7805C200.584 37.8134 206.294 34.954 212.412 33.3982ZM229.146 82.1832C221.154 89.3902 209.523 78.0143 217.25 70.2877C224.977 62.5611 236.364 74.1958 229.146 82.1832ZM204.476 116.264C187.62 108.306 177.423 90.3277 179.232 71.7737C180.092 63.3296 183.393 55.3182 188.731 48.7188L207.332 67.3198C203.512 74.2421 204.527 83.3405 210.309 89.1225C216.322 95.136 225.022 95.7254 232 91.9873L250.714 110.702C237.687 120.886 219.767 123.486 204.478 116.266L204.476 116.264Z" fill="#008080" fill-opacity="0.5"/>
<path d="M419.367 44.4012C435.019 28.3147 439.515 4.39154 430.323 -16.1438C421.052 -36.8361 398.615 -49.7306 376.104 -47.4813C353.693 -45.234 334.402 -28.9981 328.866 -7.03963C323.344 14.8737 332.34 38.0092 350.807 50.8394C371.859 65.4714 400.663 62.2117 418.946 44.7954C419.093 44.6714 419.234 44.5398 419.367 44.4012ZM370.412 -36.6018C388.078 -41.0488 407.386 -33.8993 417.648 -18.7624C428.649 -2.54893 427.441 18.6698 415.649 33.756L396.94 15.0471C400.686 8.06208 400.079 -0.640234 394.075 -6.64387C388.262 -12.4573 379.212 -13.4075 372.288 -9.60467L353.673 -28.2195C358.584 -32.1866 364.294 -35.046 370.412 -36.6018ZM387.146 12.1832C379.154 19.3902 367.523 8.01426 375.25 0.287669C382.977 -7.43892 394.364 4.19584 387.146 12.1832ZM362.476 46.2636C345.62 38.306 335.423 20.3277 337.232 1.77371C338.092 -6.67042 341.393 -14.6818 346.731 -21.2812L365.332 -2.68015C361.512 4.2421 362.527 13.3405 368.309 19.1225C374.322 25.136 383.022 25.7254 390 21.9873L408.714 40.7021C395.687 50.8861 377.767 53.486 362.478 46.2655L362.476 46.2636Z" fill="#008080" fill-opacity="0.5"/>
<path d="M114.367 43.4012C130.019 27.3147 134.515 3.39154 125.323 -17.1438C116.052 -37.8361 93.6147 -50.7306 71.1036 -48.4813C48.6926 -46.234 29.4019 -29.9981 23.8662 -8.03963C18.3442 13.8737 27.3405 37.0092 45.8068 49.8394C66.8593 64.4714 95.663 61.2117 113.946 43.7954C114.093 43.6714 114.234 43.5398 114.367 43.4012ZM65.4121 -37.6018C83.0781 -42.0488 102.386 -34.8993 112.648 -19.7624C123.649 -3.54893 122.441 17.6698 110.649 32.756L91.9398 14.0471C95.6858 7.06208 95.0787 -1.64023 89.0751 -7.64387C83.2616 -13.4573 74.2123 -14.4075 67.2881 -10.6047L48.6733 -29.2195C53.5842 -33.1866 59.2941 -36.046 65.4121 -37.6018ZM82.1455 11.1832C74.1543 18.3902 62.5234 7.01426 70.25 -0.712331C77.9766 -8.43892 89.3643 3.19584 82.1455 11.1832ZM57.4764 45.2636C40.6195 37.306 30.4227 19.3277 32.2324 0.773711C33.0919 -7.67042 36.3926 -15.6818 41.7311 -22.2812L60.3322 -3.68015C56.5117 3.2421 57.5266 12.3405 63.3087 18.1225C69.3221 24.136 78.0225 24.7254 84.9996 20.9873L103.714 39.7021C90.6873 49.8861 72.7666 52.486 57.4784 45.2655L57.4764 45.2636Z" fill="#008080" fill-opacity="0.5"/>
<path d="M114.367 643.949C130.019 627.862 134.515 603.939 125.323 583.404C116.052 562.712 93.6147 549.817 71.1036 552.066C48.6926 554.314 29.4019 570.55 23.8662 592.508C18.3442 614.421 27.3405 637.557 45.8068 650.387C66.8593 665.019 95.663 661.759 113.946 644.343C114.093 644.219 114.234 644.087 114.367 643.949ZM65.4121 562.946C83.0781 558.499 102.386 565.648 112.648 580.785C123.649 596.999 122.441 618.217 110.649 633.304L91.9398 614.595C95.6858 607.61 95.0787 598.907 89.0751 592.904C83.2616 587.09 74.2123 586.14 67.2881 589.943L48.6733 571.328C53.5842 567.361 59.2941 564.502 65.4121 562.946ZM82.1455 611.731C74.1543 618.938 62.5234 607.562 70.25 599.835C77.9766 592.109 89.3643 603.743 82.1455 611.731ZM57.4764 645.811C40.6195 637.854 30.4227 619.875 32.2324 601.321C33.0919 592.877 36.3926 584.866 41.7311 578.266L60.3322 596.867C56.5117 603.79 57.5266 612.888 63.3087 618.67C69.3221 624.684 78.0225 625.273 84.9996 621.535L103.714 640.25C90.6873 650.434 72.7666 653.034 57.4784 645.813L57.4764 645.811Z" fill="#008080" fill-opacity="0.5"/>
<path d="M419.304 496.687C434.955 480.6 439.452 456.677 430.259 436.142C420.988 415.45 398.551 402.555 376.04 404.804C353.629 407.052 334.338 423.288 328.803 445.246C323.281 467.159 332.277 490.295 350.743 503.125C371.796 517.757 400.599 514.497 418.882 497.081C419.03 496.957 419.17 496.826 419.304 496.687ZM370.349 415.684C388.015 411.237 407.323 418.386 417.584 433.523C428.585 449.737 427.377 470.956 415.585 486.042L396.876 467.333C400.622 460.348 400.015 451.646 394.012 445.642C388.198 439.828 379.149 438.878 372.225 442.681L353.61 424.066C358.521 420.099 364.231 417.24 370.349 415.684ZM387.082 464.469C379.091 471.676 367.46 460.3 375.187 452.573C382.913 444.847 394.301 456.482 387.082 464.469ZM362.413 498.549C345.556 490.592 335.359 472.613 337.169 454.059C338.028 445.615 341.329 437.604 346.668 431.005L365.269 449.606C361.448 456.528 362.463 465.626 368.245 471.408C374.259 477.422 382.959 478.011 389.936 474.273L408.651 492.988C395.624 503.172 377.703 505.772 362.415 498.551L362.413 498.549Z" fill="#008080" fill-opacity="0.5"/>
<path d="M266.836 420.081C282.487 403.994 286.984 380.071 277.791 359.536C268.52 338.844 246.083 325.949 223.572 328.198C201.161 330.446 181.87 346.682 176.334 368.64C170.813 390.553 179.809 413.689 198.275 426.519C219.328 441.151 248.131 437.891 266.414 420.475C266.561 420.351 266.702 420.22 266.836 420.081ZM217.88 339.078C235.546 334.631 254.854 341.78 265.116 356.917C276.117 373.131 274.909 394.35 263.117 409.436L244.408 390.727C248.154 383.742 247.547 375.04 241.543 369.036C235.73 363.223 226.681 362.272 219.756 366.075L201.142 347.46C206.052 343.493 211.762 340.634 217.88 339.078ZM234.614 387.863C226.623 395.07 214.992 383.694 222.718 375.967C230.445 368.241 241.833 379.876 234.614 387.863ZM209.945 421.943C193.088 413.986 182.891 396.008 184.701 377.454C185.56 369.009 188.861 360.998 194.199 354.399L212.8 373C208.98 379.922 209.995 389.02 215.777 394.802C221.79 400.816 230.491 401.405 237.468 397.667L256.183 416.382C243.156 426.566 225.235 429.166 209.947 421.945L209.945 421.943Z" fill="#008080" fill-opacity="0.5"/>
<path d="M266.836 267.613C282.487 251.527 286.984 227.603 277.791 207.068C268.52 186.376 246.083 173.481 223.572 175.731C201.161 177.978 181.87 194.214 176.334 216.172C170.813 238.086 179.809 261.221 198.275 274.051C219.328 288.683 248.131 285.424 266.414 268.007C266.561 267.883 266.702 267.752 266.836 267.613ZM217.88 186.61C235.546 182.163 254.854 189.313 265.116 204.45C276.117 220.663 274.909 241.882 263.117 256.968L244.408 238.259C248.154 231.274 247.547 222.572 241.543 216.568C235.73 210.755 226.681 209.804 219.756 213.607L201.142 194.992C206.052 191.025 211.762 188.166 217.88 186.61ZM234.614 235.395C226.623 242.602 214.992 231.226 222.718 223.5C230.445 215.773 241.833 227.408 234.614 235.395ZM209.945 269.475C193.088 261.518 182.891 243.54 184.701 224.986C185.56 216.541 188.861 208.53 194.199 201.931L212.8 220.532C208.98 227.454 209.995 236.552 215.777 242.334C221.79 248.348 230.491 248.937 237.468 245.199L256.183 263.914C243.156 274.098 225.235 276.698 209.947 269.477L209.945 269.475Z" fill="#008080" fill-opacity="0.5"/>
<path d="M266.836 572.549C282.487 556.463 286.984 532.539 277.791 512.004C268.52 491.312 246.083 478.417 223.572 480.667C201.161 482.914 181.87 499.15 176.334 521.108C170.813 543.022 179.809 566.157 198.275 578.987C219.328 593.619 248.131 590.36 266.414 572.943C266.561 572.819 266.702 572.688 266.836 572.549ZM217.88 491.546C235.546 487.099 254.854 494.249 265.116 509.386C276.117 525.599 274.909 546.818 263.117 561.904L244.408 543.195C248.154 536.21 247.547 527.508 241.543 521.504C235.73 515.691 226.681 514.74 219.756 518.543L201.142 499.928C206.052 495.961 211.762 493.102 217.88 491.546ZM234.614 540.331C226.623 547.538 214.992 536.162 222.718 528.436C230.445 520.709 241.833 532.344 234.614 540.331ZM209.945 574.412C193.088 566.454 182.891 548.476 184.701 529.922C185.56 521.478 188.861 513.466 194.199 506.867L212.8 525.468C208.98 532.39 209.995 541.488 215.777 547.27C221.79 553.284 230.491 553.873 237.468 550.135L256.183 568.85C243.156 579.034 225.235 581.634 209.947 574.413L209.945 574.412Z" fill="#008080" fill-opacity="0.5"/>
<path d="M419.304 643.949C434.955 627.862 439.452 603.939 430.259 583.404C420.988 562.712 398.551 549.817 376.04 552.066C353.629 554.314 334.338 570.55 328.803 592.508C323.281 614.421 332.277 637.557 350.743 650.387C371.796 665.019 400.599 661.759 418.882 644.343C419.03 644.219 419.17 644.087 419.304 643.949ZM370.349 562.946C388.015 558.499 407.323 565.648 417.584 580.785C428.585 596.999 427.377 618.217 415.585 633.304L396.876 614.595C400.622 607.61 400.015 598.907 394.012 592.904C388.198 587.09 379.149 586.14 372.225 589.943L353.61 571.328C358.521 567.361 364.231 564.502 370.349 562.946ZM387.082 611.731C379.091 618.938 367.46 607.562 375.187 599.835C382.913 592.109 394.301 603.743 387.082 611.731ZM362.413 645.811C345.556 637.854 335.359 619.875 337.169 601.321C338.028 592.877 341.329 584.866 346.668 578.266L365.269 596.867C361.448 603.79 362.463 612.888 368.245 618.67C374.259 624.684 382.959 625.273 389.936 621.535L408.651 640.25C395.624 650.434 377.703 653.034 362.415 645.813L362.413 645.811Z" fill="#008080" fill-opacity="0.5"/>
<path d="M571.772 115.145C587.423 99.0584 591.92 75.1353 582.727 54.5999C573.456 33.9076 551.019 21.0131 528.508 23.2624C506.097 25.5097 486.806 41.7457 481.27 63.7041C475.749 85.6174 484.745 108.753 503.211 121.583C524.264 136.215 553.067 132.955 571.35 115.539C571.497 115.415 571.638 115.283 571.772 115.145ZM522.816 34.1419C540.482 29.6949 559.79 36.8444 570.052 51.9814C581.053 68.1948 579.845 89.4135 568.053 104.5L549.344 85.7908C553.09 78.8058 552.483 70.1035 546.479 64.0998C540.666 58.2864 531.617 57.3362 524.692 61.139L506.078 42.5243C510.988 38.5571 516.698 35.6977 522.816 34.1419ZM539.55 82.9269C531.559 90.1339 519.928 78.758 527.654 71.0314C535.381 63.3048 546.769 74.9395 539.55 82.9269ZM514.881 117.007C498.024 109.05 487.827 91.0714 489.637 72.5174C490.496 64.0733 493.797 56.062 499.135 49.4625L517.736 68.0636C513.916 74.9858 514.931 84.0842 520.713 89.8663C526.726 95.8797 535.427 96.4691 542.404 92.731L561.119 111.446C548.092 121.63 530.171 124.23 514.883 117.009L514.881 117.007Z" fill="#008080" fill-opacity="0.5"/>
<path d="M571.772 420.825C587.423 404.738 591.92 380.815 582.727 360.28C573.456 339.588 551.019 326.693 528.508 328.942C506.097 331.19 486.806 347.426 481.27 369.384C475.749 391.297 484.745 414.433 503.211 427.263C524.264 441.895 553.067 438.635 571.35 421.219C571.497 421.095 571.638 420.963 571.772 420.825ZM522.816 339.822C540.482 335.375 559.79 342.524 570.052 357.661C581.053 373.875 579.845 395.093 568.053 410.18L549.344 391.471C553.09 384.486 552.483 375.783 546.479 369.78C540.666 363.966 531.617 363.016 524.692 366.819L506.078 348.204C510.988 344.237 516.698 341.378 522.816 339.822ZM539.55 388.607C531.559 395.814 519.928 384.438 527.654 376.711C535.381 368.985 546.769 380.619 539.55 388.607ZM514.881 422.687C498.024 414.73 487.827 396.751 489.637 378.197C490.496 369.753 493.797 361.742 499.135 355.142L517.736 373.743C513.916 380.666 514.931 389.764 520.713 395.546C526.726 401.56 535.427 402.149 542.404 398.411L561.119 417.126C548.092 427.31 530.171 429.91 514.883 422.689L514.881 422.687Z" fill="#008080" fill-opacity="0.5"/>
<path d="M571.772 268.357C587.423 252.27 591.92 228.347 582.727 207.812C573.456 187.119 551.019 174.225 528.508 176.474C506.097 178.722 486.806 194.958 481.27 216.916C475.749 238.829 484.745 261.965 503.211 274.795C524.264 289.427 553.067 286.167 571.35 268.751C571.497 268.627 571.638 268.495 571.772 268.357ZM522.816 187.354C540.482 182.907 559.79 190.056 570.052 205.193C581.053 221.407 579.845 242.625 568.053 257.712L549.344 239.003C553.09 232.018 552.483 223.315 546.479 217.312C540.666 211.498 531.617 210.548 524.692 214.351L506.078 195.736C510.988 191.769 516.698 188.91 522.816 187.354ZM539.55 236.139C531.559 243.346 519.928 231.97 527.654 224.243C535.381 216.517 546.769 228.151 539.55 236.139ZM514.881 270.219C498.024 262.262 487.827 244.283 489.637 225.729C490.496 217.285 493.797 209.274 499.135 202.674L517.736 221.275C513.916 228.198 514.931 237.296 520.713 243.078C526.726 249.092 535.427 249.681 542.404 245.943L561.119 264.658C548.092 274.842 530.171 277.442 514.883 270.221L514.881 270.219Z" fill="#008080" fill-opacity="0.5"/>
<path d="M571.772 573.293C587.423 557.206 591.92 533.283 582.727 512.748C573.456 492.056 551.019 479.161 528.508 481.41C506.097 483.658 486.806 499.894 481.27 521.852C475.749 543.765 484.745 566.901 503.211 579.731C524.264 594.363 553.067 591.103 571.35 573.687C571.497 573.563 571.638 573.431 571.772 573.293ZM522.816 492.29C540.482 487.843 559.79 494.992 570.052 510.129C581.053 526.343 579.845 547.562 568.053 562.648L549.344 543.939C553.09 536.954 552.483 528.251 546.479 522.248C540.666 516.434 531.617 515.484 524.692 519.287L506.078 500.672C510.988 496.705 516.698 493.846 522.816 492.29ZM539.55 541.075C531.559 548.282 519.928 536.906 527.654 529.179C535.381 521.453 546.769 533.088 539.55 541.075ZM514.881 575.155C498.024 567.198 487.827 549.219 489.637 530.665C490.496 522.221 493.797 514.21 499.135 507.611L517.736 526.212C513.916 533.134 514.931 542.232 520.713 548.014C526.726 554.028 535.427 554.617 542.404 550.879L561.119 569.594C548.092 579.778 530.171 582.378 514.883 575.157L514.881 575.155Z" fill="#008080" fill-opacity="0.5"/>
</g>
<defs>
<clipPath id="clip0_25_31">
<rect width="600" height="600" fill="white"/>
</clipPath>
</defs>
</svg>
