<svg xmlns="http://www.w3.org/2000/svg" version="1.1" xmlns:xlink="http://www.w3.org/1999/xlink" xmlns:svgjs="http://svgjs.dev/svgjs" width="768" height="100" preserveAspectRatio="none" viewBox="0 0 768 100">
    <g mask="url('#SvgjsMask2167')" fill="none">
        <rect width="768" height="100" x="0" y="0" fill="url('#SvgjsLinearGradient2168')"></rect>
        <path d="M768 0L651.02 0L768 13.59z" fill="rgba(255, 255, 255, .1)"></path>
        <path d="M651.02 0L768 13.59L768 14.17L362.03999999999996 0z" fill="rgba(255, 255, 255, .075)"></path>
        <path d="M362.03999999999996 0L768 14.17L768 55.08L261.46999999999997 0z" fill="rgba(255, 255, 255, .05)"></path>
        <path d="M261.46999999999997 0L768 55.08L768 55.29L142.29999999999995 0z" fill="rgba(255, 255, 255, .025)"></path>
        <path d="M0 100L383.47 100L0 75.73z" fill="rgba(0, 0, 0, .1)"></path>
        <path d="M0 75.73L383.47 100L570.9100000000001 100L0 65.47z" fill="rgba(0, 0, 0, .075)"></path>
        <path d="M0 65.47L570.9100000000001 100L631.0100000000001 100L0 47.019999999999996z" fill="rgba(0, 0, 0, .05)"></path>
        <path d="M0 47.019999999999996L631.0100000000001 100L681.4200000000001 100L0 33.019999999999996z" fill="rgba(0, 0, 0, .025)"></path>
    </g>
    <defs>
        <mask id="SvgjsMask2167">
            <rect width="768" height="100" fill="#ffffff"></rect>
        </mask>
        <linearGradient x1="50%" y1="0%" x2="50%" y2="100%" gradientUnits="userSpaceOnUse" id="SvgjsLinearGradient2168">
            <stop stop-color="rgba(181, 0, 0, 1)" offset="0"></stop>
            <stop stop-color="rgba(255, 0, 0, 1)" offset="1"></stop>
        </linearGradient>
    </defs>
</svg>