<svg xmlns="http://www.w3.org/2000/svg" version="1.1" xmlns:xlink="http://www.w3.org/1999/xlink" xmlns:svgjs="http://svgjs.dev/svgjs" width="768" height="125" preserveAspectRatio="none" viewBox="0 0 768 125">
    <g transform="rotate(180 384 62.5)"  mask="url('#SvgjsMask1012')" fill="none">
        <rect width="768" height="125" x="0" y="0" fill="url('#SvgjsLinearGradient1013')"></rect>
        <path d="M768 0L491.73 0L768 23.78z" fill="rgba(255, 255, 255, .1)"></path>
        <path d="M491.73 0L768 23.78L768 28.580000000000002L385.18 0z" fill="rgba(255, 255, 255, .075)"></path>
        <path d="M385.18 0L768 28.580000000000002L768 58.870000000000005L356.78000000000003 0z" fill="rgba(255, 255, 255, .05)"></path>
        <path d="M356.78000000000003 0L768 58.870000000000005L768 64.18L291.26000000000005 0z" fill="rgba(255, 255, 255, .025)"></path>
        <path d="M0 125L222.48 125L0 101.55z" fill="rgba(0, 0, 0, .1)"></path>
        <path d="M0 101.55L222.48 125L334.96999999999997 125L0 63.559999999999995z" fill="rgba(0, 0, 0, .075)"></path>
        <path d="M0 63.56L334.96999999999997 125L534.3299999999999 125L0 42.900000000000006z" fill="rgba(0, 0, 0, .05)"></path>
        <path d="M0 42.900000000000006L534.3299999999999 125L651.8899999999999 125L0 38.71000000000001z" fill="rgba(0, 0, 0, .025)"></path>
    </g>
    <defs>
        <mask id="SvgjsMask1012">
            <rect width="768" height="125" fill="#ffffff"></rect>
        </mask>
        <linearGradient x1="50%" y1="0%" x2="50%" y2="100%" gradientUnits="userSpaceOnUse" id="SvgjsLinearGradient1013">
            <stop stop-color="rgba(181, 0, 0, 1)" offset="0"></stop>
            <stop stop-color="rgba(255, 0, 0, 1)" offset="1"></stop>
        </linearGradient>
    </defs>
</svg>