
<svg xlink="http://www.w3.org/1999/xlink" viewBox="0 0 5000 5000" xmlns="http://www.w3.org/2000/svg" style="transform: scale(1);"><defs><filter id="goo"><feGaussianBlur in="SourceGraphic" stdDeviation="0" result="blur"></feGaussianBlur><feColorMatrix in="blur" type="matrix" values="1 0 0 0 0 0 1 0 0 0 0 0 1 0 0 0 0 0 19 -9" result="good"></feColorMatrix><feComposite in="SourceGraphic" in2="goo" operator="atop"></feComposite></filter><path d="M61,298C148,224 173,178 202,61Q391,-6 439,202C352,276 327,322 298,439Q109,506 61,298z" id="P0"></path><path d="M270,405C188,407 120,357 95,270Q61,112 230,95C281,172 315,196 405,230C328,281 304,315 270,405z" id="P1"></path><path d="M332,349C263,318 229,316 151,332C114,276 119,207 168,151L349,168L332,349z" id="P2"></path><path d="M412,353Q322,529 147,412C68,350 43,250 88,147C200,159 250,146 353,88Q529,178 412,353z" id="P3"></path><path d="M106,386Q-47,250 114,106Q250,-47 394,114C354,223 354,277 386,394C277,354 223,354 106,386z" id="P4"></path><path d="M351,224C304,264 291,288 276,351Q175,387 149,276Q113,175 224,149Q325,113 351,224z" id="P5"></path></defs><rect id="RECT" width="5000" height="5000" fill="transparent"></rect><g id="group" fill="brown" filter="" opacity="0.1"><use x="-241" y="-149" href="#P3"></use><use x="-235" y="100" href="#P3"></use><use x="-200" y="395" href="#P5"></use><use x="-181" y="460" href="#P4"></use><use x="-137" y="820" href="#P2"></use><use x="-78" y="867" href="#P1"></use><use x="-133" y="1094" href="#P0"></use><use x="-234" y="1301" href="#P1"></use><use x="-207" y="1604" href="#P0"></use><use x="-181" y="1730" href="#P4"></use><use x="-226" y="2114" href="#P4"></use><use x="-236" y="2322" href="#P5"></use><use x="-245" y="2404" href="#P4"></use><use x="-162" y="2653" href="#P0"></use><use x="-207" y="2938" href="#P1"></use><use x="-238" y="3124" href="#P4"></use><use x="-249" y="3221" href="#P3"></use><use x="-245" y="3522" href="#P3"></use><use x="-192" y="3635" href="#P1"></use><use x="-233" y="3912" href="#P0"></use><use x="-43" y="4195" href="#P5"></use><use x="-68" y="4339" href="#P0"></use><use x="-97" y="4593" href="#P0"></use><use x="-98" y="4729" href="#P2"></use><use x="-174" y="4998" href="#P1"></use><use x="-56" y="5206" href="#P1"></use><use x="142" y="-127" href="#P0"></use><use x="155" y="20" href="#P5"></use><use x="-18" y="385" href="#P4"></use><use x="113" y="513" href="#P3"></use><use x="152" y="809" href="#P2"></use><use x="-27" y="987" href="#P5"></use><use x="154" y="1184" href="#P4"></use><use x="124" y="1385" href="#P3"></use><use x="100" y="1523" href="#P5"></use><use x="131" y="1730" href="#P0"></use><use x="188" y="1916" href="#P3"></use><use x="-9" y="2263" href="#P0"></use><use x="133" y="2545" href="#P3"></use><use x="126" y="2586" href="#P2"></use><use x="39" y="2982" href="#P1"></use><use x="27" y="3142" href="#P0"></use><use x="92" y="3249" href="#P3"></use><use x="1" y="3507" href="#P3"></use><use x="72" y="3843" href="#P1"></use><use x="-30" y="3960" href="#P3"></use><use x="-26" y="4231" href="#P3"></use><use x="13" y="4310" href="#P0"></use><use x="-18" y="4598" href="#P1"></use><use x="57" y="4728" href="#P3"></use><use x="45" y="5013" href="#P5"></use><use x="-27" y="5189" href="#P5"></use><use x="197" y="-42" href="#P5"></use><use x="384" y="-24" href="#P3"></use><use x="404" y="242" href="#P1"></use><use x="219" y="581" href="#P2"></use><use x="282" y="712" href="#P4"></use><use x="229" y="847" href="#P4"></use><use x="326" y="1193" href="#P3"></use><use x="319" y="1407" href="#P4"></use><use x="402" y="1541" href="#P1"></use><use x="378" y="1896" href="#P3"></use><use x="316" y="2039" href="#P1"></use><use x="204" y="2126" href="#P3"></use><use x="236" y="2373" href="#P5"></use><use x="345" y="2653" href="#P0"></use><use x="370" y="2890" href="#P5"></use><use x="303" y="3129" href="#P1"></use><use x="347" y="3231" href="#P5"></use><use x="371" y="3449" href="#P2"></use><use x="286" y="3787" href="#P4"></use><use x="374" y="3903" href="#P3"></use><use x="215" y="4182" href="#P5"></use><use x="400" y="4372" href="#P0"></use><use x="276" y="4579" href="#P5"></use><use x="223" y="4794" href="#P2"></use><use x="327" y="4937" href="#P0"></use><use x="203" y="5230" href="#P5"></use><use x="493" y="-168" href="#P1"></use><use x="507" y="-33" href="#P0"></use><use x="436" y="275" href="#P3"></use><use x="559" y="590" href="#P3"></use><use x="430" y="778" href="#P0"></use><use x="560" y="1036" href="#P2"></use><use x="431" y="1111" href="#P0"></use><use x="609" y="1266" href="#P1"></use><use x="622" y="1530" href="#P5"></use><use x="602" y="1893" href="#P0"></use><use x="580" y="1924" href="#P2"></use><use x="472" y="2210" href="#P1"></use><use x="563" y="2472" href="#P1"></use><use x="581" y="2589" href="#P5"></use><use x="415" y="2986" href="#P0"></use><use x="496" y="3079" href="#P5"></use><use x="564" y="3270" href="#P2"></use><use x="538" y="3617" href="#P3"></use><use x="537" y="3739" href="#P0"></use><use x="508" y="3934" href="#P2"></use><use x="535" y="4170" href="#P1"></use><use x="611" y="4369" href="#P1"></use><use x="548" y="4671" href="#P3"></use><use x="450" y="4723" href="#P2"></use><use x="612" y="5056" href="#P5"></use><use x="582" y="5212" href="#P2"></use><use x="784" y="-41" href="#P3"></use><use x="637" y="110" href="#P0"></use><use x="802" y="287" href="#P5"></use><use x="689" y="421" href="#P5"></use><use x="839" y="794" href="#P4"></use><use x="829" y="863" href="#P5"></use><use x="664" y="1249" href="#P2"></use><use x="830" y="1464" href="#P2"></use><use x="639" y="1686" href="#P1"></use><use x="815" y="1850" href="#P2"></use><use x="644" y="2121" href="#P4"></use><use x="777" y="2134" href="#P5"></use><use x="736" y="2513" href="#P2"></use><use x="632" y="2748" href="#P3"></use><use x="670" y="2811" href="#P1"></use><use x="633" y="3015" href="#P1"></use><use x="662" y="3269" href="#P0"></use><use x="809" y="3558" href="#P1"></use><use x="713" y="3636" href="#P0"></use><use x="849" y="3924" href="#P0"></use><use x="779" y="4172" href="#P2"></use><use x="841" y="4343" href="#P2"></use><use x="737" y="4513" href="#P0"></use><use x="818" y="4772" href="#P1"></use><use x="630" y="4978" href="#P5"></use><use x="791" y="5198" href="#P3"></use><use x="907" y="-138" href="#P3"></use><use x="948" y="24" href="#P3"></use><use x="875" y="257" href="#P3"></use><use x="1037" y="416" href="#P4"></use><use x="906" y="706" href="#P1"></use><use x="864" y="1043" href="#P3"></use><use x="871" y="1183" href="#P5"></use><use x="1046" y="1316" href="#P0"></use><use x="851" y="1558" href="#P2"></use><use x="972" y="1899" href="#P4"></use><use x="1043" y="2082" href="#P0"></use><use x="1053" y="2255" href="#P2"></use><use x="973" y="2494" href="#P2"></use><use x="984" y="2658" href="#P5"></use><use x="937" y="2856" href="#P5"></use><use x="946" y="3192" href="#P1"></use><use x="898" y="3276" href="#P4"></use><use x="860" y="3573" href="#P5"></use><use x="939" y="3705" href="#P1"></use><use x="990" y="3894" href="#P5"></use><use x="855" y="4239" href="#P3"></use><use x="971" y="4365" href="#P0"></use><use x="924" y="4692" href="#P3"></use><use x="1001" y="4837" href="#P3"></use><use x="1052" y="5019" href="#P2"></use><use x="1006" y="5213" href="#P5"></use><use x="1195" y="-161" href="#P4"></use><use x="1255" y="107" href="#P4"></use><use x="1158" y="225" href="#P0"></use><use x="1208" y="476" href="#P1"></use><use x="1175" y="663" href="#P4"></use><use x="1206" y="1010" href="#P1"></use><use x="1091" y="1195" href="#P5"></use><use x="1243" y="1433" href="#P3"></use><use x="1181" y="1624" href="#P1"></use><use x="1156" y="1791" href="#P3"></use><use x="1152" y="1969" href="#P5"></use><use x="1205" y="2288" href="#P5"></use><use x="1273" y="2512" href="#P1"></use><use x="1180" y="2671" href="#P0"></use><use x="1212" y="2893" href="#P3"></use><use x="1085" y="3136" href="#P0"></use><use x="1160" y="3218" href="#P0"></use><use x="1143" y="3582" href="#P4"></use><use x="1114" y="3796" href="#P0"></use><use x="1114" y="4015" href="#P4"></use><use x="1145" y="4270" href="#P4"></use><use x="1258" y="4483" href="#P0"></use><use x="1079" y="4674" href="#P3"></use><use x="1202" y="4726" href="#P2"></use><use x="1238" y="4979" href="#P3"></use><use x="1190" y="5293" href="#P2"></use><use x="1409" y="-105" href="#P4"></use><use x="1449" y="173" href="#P0"></use><use x="1465" y="320" href="#P5"></use><use x="1306" y="411" href="#P1"></use><use x="1330" y="784" href="#P3"></use><use x="1361" y="940" href="#P5"></use><use x="1301" y="1235" href="#P2"></use><use x="1479" y="1425" href="#P5"></use><use x="1469" y="1639" href="#P4"></use><use x="1320" y="1769" href="#P5"></use><use x="1423" y="1967" href="#P1"></use><use x="1305" y="2247" href="#P3"></use><use x="1428" y="2373" href="#P1"></use><use x="1445" y="2678" href="#P0"></use><use x="1438" y="2955" href="#P1"></use><use x="1327" y="3197" href="#P5"></use><use x="1462" y="3301" href="#P5"></use><use x="1341" y="3579" href="#P0"></use><use x="1405" y="3827" href="#P0"></use><use x="1509" y="3911" href="#P4"></use><use x="1480" y="4192" href="#P4"></use><use x="1465" y="4387" href="#P4"></use><use x="1354" y="4499" href="#P2"></use><use x="1346" y="4711" href="#P5"></use><use x="1331" y="4989" href="#P2"></use><use x="1405" y="5229" href="#P1"></use><use x="1623" y="-247" href="#P2"></use><use x="1623" y="2" href="#P5"></use><use x="1600" y="273" href="#P1"></use><use x="1624" y="505" href="#P3"></use><use x="1720" y="801" href="#P0"></use><use x="1707" y="1031" href="#P3"></use><use x="1566" y="1128" href="#P4"></use><use x="1572" y="1294" href="#P3"></use><use x="1513" y="1690" href="#P1"></use><use x="1582" y="1732" href="#P1"></use><use x="1686" y="1930" href="#P0"></use><use x="1544" y="2281" href="#P3"></use><use x="1584" y="2545" href="#P0"></use><use x="1684" y="2653" href="#P5"></use><use x="1613" y="2883" href="#P5"></use><use x="1628" y="3093" href="#P1"></use><use x="1548" y="3409" href="#P0"></use><use x="1534" y="3476" href="#P4"></use><use x="1558" y="3730" href="#P5"></use><use x="1610" y="3944" href="#P4"></use><use x="1629" y="4119" href="#P4"></use><use x="1703" y="4286" href="#P3"></use><use x="1640" y="4672" href="#P2"></use><use x="1608" y="4722" href="#P3"></use><use x="1570" y="5124" href="#P0"></use><use x="1643" y="5158" href="#P5"></use><use x="1921" y="-100" href="#P2"></use><use x="1878" y="46" href="#P4"></use><use x="1803" y="289" href="#P0"></use><use x="1846" y="530" href="#P0"></use><use x="1765" y="814" href="#P2"></use><use x="1928" y="899" href="#P0"></use><use x="1919" y="1066" href="#P5"></use><use x="1751" y="1420" href="#P3"></use><use x="1868" y="1585" href="#P4"></use><use x="1892" y="1705" href="#P1"></use><use x="1923" y="1940" href="#P2"></use><use x="1890" y="2199" href="#P4"></use><use x="1742" y="2381" href="#P2"></use><use x="1799" y="2650" href="#P2"></use><use x="1892" y="2941" href="#P1"></use><use x="1898" y="3083" href="#P2"></use><use x="1916" y="3412" href="#P2"></use><use x="1883" y="3416" href="#P1"></use><use x="1737" y="3765" href="#P1"></use><use x="1735" y="4039" href="#P2"></use><use x="1926" y="4217" href="#P1"></use><use x="1810" y="4284" href="#P5"></use><use x="1797" y="4619" href="#P3"></use><use x="1744" y="4903" href="#P2"></use><use x="1938" y="5122" href="#P4"></use><use x="1814" y="5334" href="#P3"></use><use x="2048" y="-117" href="#P4"></use><use x="1977" y="99" href="#P3"></use><use x="1951" y="186" href="#P5"></use><use x="2101" y="416" href="#P0"></use><use x="2148" y="764" href="#P2"></use><use x="1958" y="991" href="#P1"></use><use x="2099" y="1190" href="#P4"></use><use x="2063" y="1335" href="#P3"></use><use x="2115" y="1581" href="#P1"></use><use x="2165" y="1857" href="#P5"></use><use x="1989" y="2089" href="#P4"></use><use x="2125" y="2146" href="#P0"></use><use x="2135" y="2517" href="#P5"></use><use x="2165" y="2679" href="#P2"></use><use x="2011" y="2962" href="#P0"></use><use x="2167" y="3180" href="#P0"></use><use x="1973" y="3332" href="#P1"></use><use x="2021" y="3445" href="#P0"></use><use x="1950" y="3669" href="#P3"></use><use x="2057" y="3971" href="#P0"></use><use x="2008" y="4190" href="#P2"></use><use x="2084" y="4345" href="#P1"></use><use x="2066" y="4688" href="#P0"></use><use x="2136" y="4885" href="#P1"></use><use x="2074" y="5136" href="#P2"></use><use x="2025" y="5161" href="#P1"></use><use x="2305" y="-82" href="#P4"></use><use x="2298" y="116" href="#P0"></use><use x="2190" y="343" href="#P4"></use><use x="2241" y="611" href="#P4"></use><use x="2337" y="659" href="#P5"></use><use x="2175" y="837" href="#P1"></use><use x="2260" y="1234" href="#P5"></use><use x="2178" y="1348" href="#P4"></use><use x="2242" y="1603" href="#P4"></use><use x="2292" y="1738" href="#P1"></use><use x="2352" y="1991" href="#P5"></use><use x="2317" y="2158" href="#P0"></use><use x="2388" y="2476" href="#P1"></use><use x="2240" y="2656" href="#P4"></use><use x="2366" y="2859" href="#P2"></use><use x="2244" y="3018" href="#P1"></use><use x="2385" y="3256" href="#P5"></use><use x="2299" y="3600" href="#P1"></use><use x="2323" y="3729" href="#P1"></use><use x="2182" y="3921" href="#P5"></use><use x="2266" y="4105" href="#P3"></use><use x="2368" y="4322" href="#P1"></use><use x="2274" y="4685" href="#P4"></use><use x="2197" y="4833" href="#P3"></use><use x="2357" y="4971" href="#P3"></use><use x="2294" y="5326" href="#P1"></use><use x="2410" y="-184" href="#P0"></use><use x="2442" y="160" href="#P3"></use><use x="2554" y="370" href="#P3"></use><use x="2559" y="480" href="#P3"></use><use x="2422" y="643" href="#P0"></use><use x="2549" y="881" href="#P0"></use><use x="2535" y="1215" href="#P5"></use><use x="2556" y="1393" href="#P5"></use><use x="2593" y="1519" href="#P0"></use><use x="2499" y="1811" href="#P0"></use><use x="2559" y="1959" href="#P4"></use><use x="2485" y="2241" href="#P0"></use><use x="2482" y="2439" href="#P5"></use><use x="2552" y="2579" href="#P5"></use><use x="2453" y="2792" href="#P2"></use><use x="2602" y="3112" href="#P2"></use><use x="2430" y="3312" href="#P0"></use><use x="2511" y="3532" href="#P0"></use><use x="2457" y="3707" href="#P2"></use><use x="2584" y="4014" href="#P3"></use><use x="2426" y="4230" href="#P1"></use><use x="2393" y="4361" href="#P1"></use><use x="2551" y="4675" href="#P2"></use><use x="2588" y="4834" href="#P0"></use><use x="2502" y="5118" href="#P3"></use><use x="2519" y="5198" href="#P5"></use><use x="2757" y="-103" href="#P2"></use><use x="2643" y="-19" href="#P4"></use><use x="2830" y="327" href="#P3"></use><use x="2615" y="608" href="#P2"></use><use x="2726" y="614" href="#P4"></use><use x="2610" y="943" href="#P4"></use><use x="2771" y="1085" href="#P0"></use><use x="2631" y="1408" href="#P2"></use><use x="2743" y="1546" href="#P1"></use><use x="2738" y="1793" href="#P3"></use><use x="2622" y="2122" href="#P5"></use><use x="2641" y="2202" href="#P4"></use><use x="2727" y="2417" href="#P0"></use><use x="2760" y="2721" href="#P1"></use><use x="2757" y="2912" href="#P1"></use><use x="2660" y="3170" href="#P2"></use><use x="2649" y="3416" href="#P0"></use><use x="2777" y="3548" href="#P2"></use><use x="2726" y="3843" href="#P3"></use><use x="2714" y="3988" href="#P5"></use><use x="2751" y="4214" href="#P4"></use><use x="2676" y="4474" href="#P3"></use><use x="2794" y="4506" href="#P4"></use><use x="2742" y="4791" href="#P2"></use><use x="2662" y="5063" href="#P4"></use><use x="2812" y="5288" href="#P0"></use><use x="2869" y="-139" href="#P5"></use><use x="2978" y="95" href="#P2"></use><use x="2942" y="327" href="#P2"></use><use x="2841" y="525" href="#P2"></use><use x="3020" y="817" href="#P0"></use><use x="2950" y="912" href="#P3"></use><use x="2873" y="1085" href="#P1"></use><use x="2998" y="1268" href="#P1"></use><use x="2895" y="1605" href="#P1"></use><use x="2876" y="1842" href="#P4"></use><use x="2990" y="2069" href="#P3"></use><use x="3041" y="2213" href="#P1"></use><use x="2869" y="2441" href="#P0"></use><use x="2973" y="2752" href="#P1"></use><use x="2921" y="2912" href="#P4"></use><use x="3000" y="3092" href="#P4"></use><use x="2878" y="3246" href="#P3"></use><use x="3043" y="3449" href="#P0"></use><use x="2921" y="3827" href="#P4"></use><use x="2844" y="3955" href="#P1"></use><use x="2988" y="4127" href="#P4"></use><use x="2955" y="4290" href="#P0"></use><use x="2833" y="4537" href="#P2"></use><use x="2926" y="4741" href="#P5"></use><use x="2857" y="5026" href="#P0"></use><use x="2918" y="5166" href="#P1"></use><use x="3065" y="-158" href="#P0"></use><use x="3172" y="49" href="#P0"></use><use x="3105" y="305" href="#P1"></use><use x="3111" y="434" href="#P2"></use><use x="3168" y="721" href="#P0"></use><use x="3183" y="1010" href="#P0"></use><use x="3069" y="1191" href="#P2"></use><use x="3163" y="1403" href="#P4"></use><use x="3080" y="1564" href="#P3"></use><use x="3093" y="1781" href="#P3"></use><use x="3077" y="2114" href="#P2"></use><use x="3269" y="2135" href="#P4"></use><use x="3065" y="2526" href="#P5"></use><use x="3072" y="2768" href="#P2"></use><use x="3225" y="2800" href="#P1"></use><use x="3222" y="3146" href="#P2"></use><use x="3174" y="3336" href="#P1"></use><use x="3101" y="3543" href="#P4"></use><use x="3226" y="3842" href="#P0"></use><use x="3125" y="3971" href="#P3"></use><use x="3268" y="4200" href="#P5"></use><use x="3098" y="4325" href="#P3"></use><use x="3107" y="4540" href="#P0"></use><use x="3146" y="4730" href="#P5"></use><use x="3138" y="5063" href="#P4"></use><use x="3259" y="5219" href="#P1"></use><use x="3374" y="-147" href="#P0"></use><use x="3445" y="-14" href="#P5"></use><use x="3460" y="371" href="#P1"></use><use x="3382" y="531" href="#P1"></use><use x="3389" y="688" href="#P1"></use><use x="3451" y="1033" href="#P3"></use><use x="3287" y="1185" href="#P2"></use><use x="3441" y="1456" href="#P5"></use><use x="3358" y="1639" href="#P1"></use><use x="3419" y="1823" href="#P3"></use><use x="3332" y="1917" href="#P2"></use><use x="3355" y="2246" href="#P2"></use><use x="3489" y="2551" href="#P1"></use><use x="3284" y="2698" href="#P1"></use><use x="3388" y="2917" href="#P3"></use><use x="3358" y="3023" href="#P2"></use><use x="3426" y="3243" href="#P4"></use><use x="3369" y="3475" href="#P2"></use><use x="3399" y="3832" href="#P2"></use><use x="3456" y="4012" href="#P3"></use><use x="3370" y="4243" href="#P4"></use><use x="3463" y="4493" href="#P3"></use><use x="3319" y="4701" href="#P4"></use><use x="3440" y="4729" href="#P0"></use><use x="3487" y="4953" href="#P3"></use><use x="3388" y="5297" href="#P3"></use><use x="3516" y="-158" href="#P3"></use><use x="3688" y="3" href="#P3"></use><use x="3602" y="286" href="#P1"></use><use x="3536" y="494" href="#P5"></use><use x="3678" y="666" href="#P3"></use><use x="3537" y="889" href="#P1"></use><use x="3629" y="1060" href="#P2"></use><use x="3511" y="1299" href="#P4"></use><use x="3524" y="1544" href="#P0"></use><use x="3665" y="1889" href="#P5"></use><use x="3672" y="1982" href="#P5"></use><use x="3533" y="2312" href="#P0"></use><use x="3708" y="2459" href="#P3"></use><use x="3580" y="2579" href="#P3"></use><use x="3577" y="2849" href="#P5"></use><use x="3500" y="3058" href="#P0"></use><use x="3544" y="3270" href="#P1"></use><use x="3606" y="3422" href="#P3"></use><use x="3663" y="3674" href="#P2"></use><use x="3670" y="3849" href="#P0"></use><use x="3648" y="4245" href="#P4"></use><use x="3565" y="4438" href="#P3"></use><use x="3566" y="4695" href="#P4"></use><use x="3538" y="4805" href="#P2"></use><use x="3623" y="5098" href="#P5"></use><use x="3492" y="5204" href="#P5"></use><use x="3862" y="-116" href="#P2"></use><use x="3907" y="141" href="#P1"></use><use x="3875" y="386" href="#P2"></use><use x="3714" y="424" href="#P4"></use><use x="3866" y="713" href="#P1"></use><use x="3919" y="957" href="#P1"></use><use x="3825" y="1227" href="#P2"></use><use x="3717" y="1280" href="#P3"></use><use x="3782" y="1666" href="#P3"></use><use x="3889" y="1850" href="#P1"></use><use x="3842" y="2094" href="#P3"></use><use x="3752" y="2241" href="#P4"></use><use x="3890" y="2372" href="#P3"></use><use x="3921" y="2631" href="#P0"></use><use x="3900" y="2855" href="#P5"></use><use x="3787" y="3054" href="#P2"></use><use x="3745" y="3329" href="#P2"></use><use x="3925" y="3563" href="#P0"></use><use x="3864" y="3740" href="#P0"></use><use x="3876" y="3933" href="#P5"></use><use x="3797" y="4239" href="#P3"></use><use x="3736" y="4495" href="#P5"></use><use x="3772" y="4608" href="#P3"></use><use x="3913" y="4870" href="#P5"></use><use x="3810" y="4930" href="#P4"></use><use x="3855" y="5249" href="#P0"></use><use x="4053" y="-197" href="#P5"></use><use x="4137" y="119" href="#P3"></use><use x="3953" y="250" href="#P4"></use><use x="3974" y="560" href="#P3"></use><use x="3977" y="680" href="#P4"></use><use x="4096" y="960" href="#P4"></use><use x="4119" y="1233" href="#P2"></use><use x="4134" y="1274" href="#P5"></use><use x="4003" y="1595" href="#P4"></use><use x="4052" y="1713" href="#P4"></use><use x="3991" y="2040" href="#P5"></use><use x="4008" y="2242" href="#P3"></use><use x="4110" y="2460" href="#P1"></use><use x="3948" y="2562" href="#P1"></use><use x="4075" y="2961" href="#P4"></use><use x="4098" y="3087" href="#P0"></use><use x="4074" y="3345" href="#P4"></use><use x="4030" y="3594" href="#P4"></use><use x="4050" y="3638" href="#P2"></use><use x="4066" y="4016" href="#P2"></use><use x="4044" y="4080" href="#P1"></use><use x="4105" y="4423" href="#P4"></use><use x="4036" y="4514" href="#P0"></use><use x="4046" y="4859" href="#P1"></use><use x="4110" y="5079" href="#P5"></use><use x="3951" y="5192" href="#P2"></use><use x="4284" y="-158" href="#P1"></use><use x="4327" y="128" href="#P2"></use><use x="4310" y="240" href="#P2"></use><use x="4253" y="451" href="#P2"></use><use x="4198" y="737" href="#P2"></use><use x="4273" y="900" href="#P5"></use><use x="4280" y="1137" href="#P5"></use><use x="4254" y="1339" href="#P4"></use><use x="4227" y="1662" href="#P0"></use><use x="4243" y="1772" href="#P5"></use><use x="4171" y="1986" href="#P0"></use><use x="4156" y="2219" href="#P1"></use><use x="4170" y="2418" href="#P3"></use><use x="4160" y="2756" href="#P0"></use><use x="4325" y="2973" href="#P2"></use><use x="4314" y="3154" href="#P3"></use><use x="4157" y="3300" href="#P0"></use><use x="4166" y="3570" href="#P2"></use><use x="4351" y="3825" href="#P2"></use><use x="4298" y="3972" href="#P5"></use><use x="4360" y="4164" href="#P0"></use><use x="4295" y="4481" href="#P0"></use><use x="4290" y="4580" href="#P4"></use><use x="4226" y="4725" href="#P2"></use><use x="4174" y="5098" href="#P1"></use><use x="4223" y="5286" href="#P5"></use><use x="4540" y="-181" href="#P2"></use><use x="4440" y="86" href="#P0"></use><use x="4565" y="283" href="#P5"></use><use x="4472" y="480" href="#P3"></use><use x="4489" y="755" href="#P2"></use><use x="4562" y="1020" href="#P4"></use><use x="4452" y="1164" href="#P1"></use><use x="4403" y="1265" href="#P3"></use><use x="4387" y="1589" href="#P4"></use><use x="4575" y="1869" href="#P3"></use><use x="4554" y="1941" href="#P5"></use><use x="4466" y="2223" href="#P5"></use><use x="4472" y="2369" href="#P3"></use><use x="4390" y="2692" href="#P1"></use><use x="4387" y="2828" href="#P2"></use><use x="4584" y="3026" href="#P5"></use><use x="4420" y="3214" href="#P4"></use><use x="4506" y="3610" href="#P2"></use><use x="4511" y="3772" href="#P5"></use><use x="4440" y="4063" href="#P3"></use><use x="4391" y="4233" href="#P1"></use><use x="4566" y="4411" href="#P2"></use><use x="4449" y="4567" href="#P3"></use><use x="4412" y="4840" href="#P3"></use><use x="4423" y="5103" href="#P5"></use><use x="4541" y="5332" href="#P3"></use><use x="4641" y="-197" href="#P4"></use><use x="4674" y="140" href="#P3"></use><use x="4719" y="321" href="#P3"></use><use x="4739" y="502" href="#P1"></use><use x="4610" y="649" href="#P5"></use><use x="4684" y="884" href="#P2"></use><use x="4779" y="1103" href="#P2"></use><use x="4686" y="1270" href="#P0"></use><use x="4608" y="1658" href="#P2"></use><use x="4706" y="1697" href="#P4"></use><use x="4796" y="2035" href="#P5"></use><use x="4673" y="2154" href="#P3"></use><use x="4749" y="2346" href="#P2"></use><use x="4756" y="2592" href="#P4"></use><use x="4672" y="2984" href="#P5"></use><use x="4778" y="3013" href="#P5"></use><use x="4743" y="3313" href="#P5"></use><use x="4782" y="3474" href="#P3"></use><use x="4595" y="3835" href="#P3"></use><use x="4710" y="3988" href="#P0"></use><use x="4625" y="4139" href="#P2"></use><use x="4603" y="4472" href="#P1"></use><use x="4775" y="4530" href="#P4"></use><use x="4789" y="4900" href="#P1"></use><use x="4790" y="5058" href="#P3"></use><use x="4614" y="5337" href="#P4"></use><use x="4931" y="-167" href="#P0"></use><use x="5001" y="-26" href="#P3"></use><use x="4981" y="320" href="#P4"></use><use x="4888" y="557" href="#P5"></use><use x="5019" y="748" href="#P1"></use><use x="4960" y="995" href="#P4"></use><use x="4896" y="1260" href="#P4"></use><use x="4982" y="1297" href="#P1"></use><use x="4975" y="1687" href="#P0"></use><use x="5010" y="1887" href="#P1"></use><use x="4932" y="1940" href="#P3"></use><use x="4855" y="2253" href="#P3"></use><use x="5027" y="2472" href="#P1"></use><use x="4853" y="2718" href="#P5"></use><use x="4883" y="2852" href="#P3"></use><use x="4853" y="3128" href="#P0"></use><use x="4963" y="3217" href="#P3"></use><use x="4866" y="3467" href="#P3"></use><use x="4924" y="3755" href="#P3"></use><use x="4892" y="3848" href="#P3"></use><use x="4892" y="4065" href="#P0"></use><use x="5027" y="4454" href="#P1"></use><use x="4831" y="4506" href="#P1"></use><use x="4888" y="4833" href="#P4"></use><use x="4847" y="4997" href="#P2"></use><use x="5025" y="5240" href="#P1"></use><use x="5075" y="-72" href="#P2"></use><use x="5078" y="82" href="#P0"></use><use x="5141" y="245" href="#P1"></use><use x="5088" y="423" href="#P1"></use><use x="5137" y="740" href="#P4"></use><use x="5209" y="978" href="#P1"></use><use x="5054" y="1206" href="#P0"></use><use x="5236" y="1337" href="#P0"></use><use x="5109" y="1644" href="#P1"></use><use x="5173" y="1810" href="#P1"></use><use x="5159" y="1946" href="#P3"></use><use x="5243" y="2188" href="#P2"></use><use x="5214" y="2538" href="#P0"></use><use x="5030" y="2571" href="#P3"></use><use x="5226" y="2902" href="#P4"></use><use x="5094" y="3178" href="#P4"></use><use x="5179" y="3394" href="#P0"></use><use x="5245" y="3490" href="#P2"></use><use x="5195" y="3743" href="#P0"></use><use x="5122" y="3979" href="#P0"></use><use x="5246" y="4064" href="#P5"></use><use x="5213" y="4390" href="#P2"></use><use x="5229" y="4514" href="#P3"></use><use x="5092" y="4834" href="#P3"></use><use x="5209" y="4955" href="#P1"></use><use x="5184" y="5145" href="#P2"></use></g></svg>
